<?xml version="1.0" encoding="UTF-8"?>
<svg id="Calque_1" data-name="Calque 1" xmlns="http://www.w3.org/2000/svg" viewBox="0 0 303.3 375.58">
  <defs>
    <style>
      .cls-1 {
        fill: #fff;
      }
    </style>
  </defs>
  <path class="cls-1" d="M248.2,2.25c-13.7,4.7-22.7,14.1-26.9,28.4-.7,2.4-1.5,4.3-1.7,4.3s-2.6-1.1-5.3-2.5c-14.6-7.4-27.1-10.5-45.1-11.2-17-.7-26.6.5-40.1,4.7-70.9,22.3-101.9,106.4-62.6,169.8,6.6,10.5,21.4,26.3,31.2,33,35.4,24.6,79.5,27.8,117.9,8.6,25.4-12.7,46-36.2,56-63.9,4.7-13.1,6.2-22.7,6.1-39-.1-15.5-1.5-24-6.2-37.6l-2-5.6,5.2-4c19.4-15.2,28.6-29.8,28.6-45.1-.1-28.9-28.1-49.1-55.1-39.9ZM276.7,9.95c15.1,7.2,23.2,24.1,19.2,40-3,11.6-13.2,24-29.1,35.1-10.4,7.3-22.5,14.1-24,13.5-1.6-.6-9.7-19.9-13.1-31.1-3.5-11.9-4.4-28.8-2-36.3,7-20.9,29.4-30.6,49-21.2ZM160.3,50.95v21h-22c-12.1,0-22-.2-22-.5s2.3-5.4,5-11.3c5.2-10.9,12.9-24,15.4-26.1,1.2-1,15.8-3.8,21.4-4l2.2-.1v21ZM176.8,30.95c3.9.6,9.2,1.5,11.9,2.1,4.8,1.2,4.9,1.2,8.7,9.4,2.1,4.5,5.4,12.8,7.3,18.6l3.5,10.4-20.1.3c-11,.1-20.4,0-20.7-.4-.8-.8-1.4-33.9-.6-38,.7-3.8.4-3.7,10-2.4ZM124.5,40.15c-5,8.6-7.2,13-10.7,21.3-2.1,4.9-4.1,9.4-4.5,9.8s-7.1.6-15.1.5l-14.4-.3,8.3-8.7c9.2-9.6,19.3-17,30.3-22.3,4-1.9,7.5-3.5,7.7-3.5s-.5,1.5-1.6,3.2ZM212.3,42.25c6.7,3.5,8,5.1,8,9.6,0,3.1,2,13,3.6,18.3.5,1.6-.2,1.8-4.4,1.8h-4.9l-2.2-7.8c-1.3-4.2-3.8-11.5-5.7-16.1-1.9-4.7-3.4-8.8-3.4-9.3,0-1,2.2-.1,9,3.5ZM107.3,79.25c0,.2-.7,2.3-1.5,4.8-2.5,7.7-5.5,25-6.3,36.4l-.7,11h-40l.3-4.5c.9-12.8,5.7-29.4,12-41.3l3.6-6.7h16.3c9,0,16.3.1,16.3.3ZM160.3,105.45v26.5h-55v-4.3c0-10.1,3-28.8,6.7-42.5l1.8-6.2h46.5v26.5ZM211.6,88.15c2.3,12.5,3.4,21.3,4.3,33.5l.7,10.3h-24.6c-21.9,0-24.6-.2-25.1-1.7-.4-.9-.6-12.8-.6-26.5l.1-24.8h43.5l1.7,9.2ZM230.1,87.25c1.8,4.5,4.5,10.4,6,13.2,3.7,6.8,6.2,7,16.6,1,4.4-2.5,8.3-4.2,8.7-3.8,2.2,2.5,6.9,23.2,6.9,30.4v3.9h-46v-6.3c0-9.9-3.4-37.2-5.6-45-.5-1.5.2-1.7,4.8-1.7h5.3l3.3,8.3ZM99.5,149.95c.9,14.6,3.6,30.3,7.4,42.3.5,1.6-.5,1.7-15.1,1.5l-15.7-.3-4.4-8c-5.1-9.3-9.9-23.2-11.3-32.5-1.7-11.5-2-13.8-1.3-14.4.3-.4,9.4-.5,20.1-.4l19.6.3.7,11.5ZM160.3,165.95v28l-23.2-.2-23.2-.3-1.3-4.5c-3.8-12.8-7.3-34.8-7.3-45.8v-5.2h55v28ZM215.9,149.15c-.7,11.9-2.8,28.2-4.9,38.3l-1.3,6-21.7.3-21.8.2.1-25.2c.1-13.9.4-26.5.7-28.1l.5-2.7h49.1l-.7,11.2ZM268.3,142.65c-.1,11.8-5.7,30.5-13.3,44l-4.1,7.3h-17.3c-9.5,0-17.3-.2-17.3-.4s.7-4,1.5-8.3c2.2-11,4.5-31.6,4.5-39.4,0-3.6.3-6.9.7-7.2.3-.4,10.7-.7,23-.7h22.3v4.7ZM112.2,207.15c1.3,3.5,4.5,10.5,7.2,15.5,2.8,5.4,4.4,9.3,3.6,9.3-2,0-15.7-7.8-21.7-12.3-6.9-5.2-14.6-12.3-17.2-15.9l-1.9-2.8h27.6l2.4,6.2ZM160.3,220.45v19.5h-3.7c-2.1,0-7.8-.7-12.7-1.6l-8.8-1.6-4-6.2c-3.5-5.4-12.5-23.1-14.1-27.9-.6-1.6.8-1.7,21.3-1.7h22v19.5ZM206.8,204.15c-1,4.6-7.3,21.3-10.1,27-2,3.9-3.1,4.9-6.1,5.7-6.6,1.7-15.5,3.1-19.9,3.1h-4.1l-.2-19.5-.2-19.5h41.3l-.7,3.2ZM241.9,205.15c-5.3,6.2-13.3,13-21.1,18-7.6,4.9-14.8,8.8-16.4,8.8-.5,0,.3-3.1,1.9-7,1.6-3.8,4-10.8,5.5-15.5l2.6-8.5h31.1l-3.6,4.2Z"/>
  <path class="cls-1" d="M253.5,18.15c-1.9.6-5.5,3.1-8.2,5.5-5.5,5-8,10.8-8,18.7.1,20,24.7,31,40,17.8,16.9-14.4,7.8-41.6-14.3-42.8-3.4-.2-7.7.2-9.5.8ZM266.6,24.05c9,2.5,15.1,12.8,12.8,21.6-2.1,7.7-10.1,14.2-17.4,14.3-6.5,0-14.6-5.5-17.3-11.9-3.7-8.9.9-19.3,10.6-23.5,4.2-1.8,6.3-1.9,11.3-.5Z"/>
  <path class="cls-1" d="M15.7,239.85C5.6,244.45-.1,253.45,0,264.95c.1,16.9,13.7,27.3,42.7,32.5,7.4,1.3,10,1.5,10.9.6,1.6-1.6,2.1-20.2.8-28.9-2.4-15.1-8-24.4-17.6-28.8-6.3-3-15.2-3.2-21.1-.5ZM37,254.15c2.7,2.7,3.6,4.6,4,8.2l.6,4.6h-11.7c-9.6,0-11.6.3-11.6,1.5,0,.8.9,2.4,2,3.5,2.3,2.3,11.7,2.9,13.8.8,1-1,1.7-.8,3.3.9,2.6,2.5,1.9,4-2.7,5.9-12.2,5.1-25.3-3.4-24.2-15.8.9-9.3,7.1-14.2,17.1-13.5,5.1.3,6.2.8,9.4,3.9Z"/>
  <path class="cls-1" d="M20.3,257.95c-4,4-2.7,5,6.4,5,8,0,8.4-.1,7.9-2-1.3-4.9-10.5-6.8-14.3-3Z"/>
  <path class="cls-1" d="M110.3,278.95c-2.8,2.8-2.6,7.5.5,10.5,7,7,18.2-3.1,11.5-10.3-2.7-2.9-9.2-3-12-.2Z"/>
  <path class="cls-1" d="M266.3,295.95v6h-4.5c-4.3,0-4.5.1-4.5,3s.2,3,4.5,3h4.5v16.7c0,18.5.9,23.3,4.9,27.3,4.3,4.3,15.7,5.2,20.7,1.6,2.4-1.8,1.2-7.2-1.4-6-.9.4-3.8.9-6.4,1.2-4,.3-5.1,0-7.3-2.2q-2.5-2.5-2.5-20.6v-18h16v-6h-16v-12h-8v6Z"/>
  <path class="cls-1" d="M68.8,301.25c-9.8,3.3-14,8.7-13.3,17.4.7,8,4.6,11.5,15.4,13.8,15.6,3.3,16.9,3.8,17.2,6.7.2,1.8-.4,3.1-2,4.2-3.3,2.3-14.4,2.1-21.5-.4-3.2-1.1-6.1-2-6.5-2-.6,0-4.8,7.6-4.8,8.7,0,.1,1.7,1.2,3.9,2.2,9.5,4.9,28,4.7,36.7-.4,9.4-5.5,10-19.5,1.1-24.1-1.7-1-7.9-2.8-13.6-4.1s-11-2.8-11.8-3.4c-.7-.6-1.3-2.4-1.3-3.9,0-6.1,12.6-7.4,25.1-2.5,1.2.4,2.2-.6,3.8-3.9,1.1-2.5,2.1-4.8,2.1-5s-2.1-1.2-4.7-2.1c-6.4-2.2-20.6-2.9-25.8-1.2Z"/>
  <path class="cls-1" d="M109.5,327.65l.3,26.8,6.3.3,6.2.3v-54.1h-13l.2,26.7Z"/>
  <path class="cls-1" d="M149.9,302.45c-18.6,6.6-22.7,33-7,44.9,8.3,6.3,20.8,7.3,30.3,2.3l5.1-2.6v3.7c0,4.4-2.8,9.4-6.7,11.9-5.7,3.7-22.8,1.7-28.5-3.4-1.5-1.3-1.9-1-4.2,3-1.4,2.4-2.6,4.9-2.6,5.6,0,2,10.2,6,18.4,7.2,16.1,2.2,28.4-2.4,33.5-12.6,2.6-5,2.6-5.2,2.9-33.3l.3-28.2h-12.1v7.2l-3-2.6c-1.7-1.4-4.7-3-6.8-3.6-5.2-1.4-14.9-1.2-19.6.5ZM172.1,314.15c4.2,2.6,6.2,6.5,6.2,12.5,0,6.5-2.8,10.9-8.7,13.5-15.4,6.8-30.6-9.2-21.2-22.3,4.8-6.8,15.8-8.5,23.7-3.7Z"/>
  <path class="cls-1" d="M214.7,302.75c-5.5,1.9-10.4,4.8-10.4,6,0,.5.6,1.7,1.4,2.7,1.4,1.9,1.5,1.9,5.3-.2,4.5-2.5,8.7-3.5,14.9-3.5,9,0,13.8,4.2,13.8,12.2l.1,4.5-14,.6c-7.7.3-14.1.7-14.2.8-.1,0-1.8,1.5-3.8,3.2-8.5,7.5-5.5,21.4,5.4,25.1,5.7,1.9,16.1,1.3,20.9-1.1,2.2-1.1,4.3-2.5,4.7-3.1,1.3-2.1,2.7-.9,2.3,2s-.3,3,3.4,3h3.8v-18.6c0-21.5-.7-25-6.1-29.9-6.3-5.7-17.4-7.2-27.5-3.7ZM240.3,335.55c0,5-.4,6-3.3,8.9-9,9-26.7,5.9-26.7-4.7,0-3.8,2.8-7.5,6.3-8.2,1.2-.3,3.1-.7,4.2-.9,1.1-.3,5.9-.5,10.8-.6l8.7-.1v5.6Z"/>
</svg>