<?xml version="1.0" encoding="UTF-8"?>
<svg id="Layer_1" data-name="Layer 1" xmlns="http://www.w3.org/2000/svg" viewBox="0 0 138.94 46.7">
  <defs>
    <style>
      .cls-1 {
        fill: #fff;
      }
    </style>
  </defs>
  <path class="cls-1" d="M125.9,6.3v13.3h-15.4v-2h13.4V5.6c-11-3.1-22.3,3.3-25.4,14.3-2.8,10,2.3,20.6,12,24.6v-13.2h15.4v2h-13.4v11.9c10.9,3.2,22.4-3,25.6-13.9,3-10.2-2.3-21.1-12.2-25h0ZM21.4,5.4c6.3,0,9.1,4.3,9.1,9.6s-3.1,9.8-9.1,9.8c-6.9,0-9.3-4.8-9.3-9.8,0-6,3.4-9.6,9.3-9.6ZM21.4,21.7c3.9,0,5.2-4.4,5.2-6.6,0-1.9-1.1-6.5-5.2-6.5s-5.5,3.3-5.5,6.5c-.1,2.3,1,6.6,5.5,6.6h0ZM44.4,24.5v-2.5h-.1c-1.2,1.9-3.3,3-5.6,2.9-3.9,0-6.9-2-6.9-6.8V6h4.2v12c0,3,1.8,3.9,3.8,3.9,4.3,0,4.4-4.1,4.4-5.9V6h4v18.5h-3.8ZM67.2,17.4c-.5,3.8-3,7.1-8.5,7.1s-8.8-3.9-8.8-9.1,2.7-10,8.8-10c5.7,0,8.8,4,8.8,10.4h-13.7c0,2.6,1.1,5.7,5,5.7,2.4.1,4.5-1.7,4.7-4.1h3.7ZM63.4,13.3c-.2-2.5-1.7-4.9-4.7-4.9-2.7,0-4.9,2.1-4.9,4.8h0v.2h9.6v-.1ZM93.5,39.3c-.5,3.8-3,7.1-8.5,7.1s-8.8-3.8-8.8-9.1,2.7-10,8.8-10c5.7,0,8.8,4,8.8,10.4h-13.8c0,2.6,1.1,5.7,5,5.7,2.4.1,4.5-1.7,4.7-4.1h3.8ZM89.6,35.1c-.2-2.5-1.7-4.9-4.7-4.9-2.7-.1-4.9,2.1-4.9,4.8h0v.2h9.6v-.1ZM79.2,10.6c0-.8-.9-2.4-3.7-2.4-1.1,0-3.7-.1-3.7,2.1,0,2,2,2.2,5.2,2.7,3.8.7,6.9,1.6,6.9,5.6s-3.5,5.9-7.9,5.9c-8.5,0-8-4.9-8.1-7h3.6c.1,1.4-.3,4.1,4.4,4.1,2.4,0,4-.5,4-2.5s-1.7-2.4-4.9-2.9c-4.7-.7-6.9-2.2-6.9-5.7,0-4,3.9-5.1,7.8-5.1,6.9,0,7.4,5.1,7.4,5.4l-4.1-.2ZM90.1,8.7v11.2c0,1.4,1,1.4,1.7,1.4h1.8v2.8h-4.7c-1,0-2.6-1.2-2.6-3.4v-12h-3v-2.7h3V0h3.8v5.9h3.5v2.7l-3.5.1ZM6.8,31v15.1h-3.8v-15.1H0v-3.1h3v-2.9c0-2.2,1.8-4,4-3.9h3.6v3.3h-2c-1.3,0-1.8.5-1.8,1.9v1.7h3.8v3.1l-3.8-.1ZM16.1,46.1h-3.5v-18.2h3.5v3.2c1-2.1,3.1-3.5,5.5-3.6h1.7v3.5h-1.6c-2.9-.1-5.4,2.1-5.6,5v10.1Z"/>
  <path class="cls-1" d="M23,33.5c.2-4.4,3.4-6.2,8.3-6.2,2.5,0,7.3.7,7.3,5.4v13.4h-3.5v-1.9c-1.7,1.6-4,2.5-6.3,2.5-4.6,0-6.3-2.7-6.3-5.4,0-1.5.2-4.9,5.6-5.5l5.1-.8c1-.1,1.8-.9,1.7-1.9h0c0-1.7-1.1-2.3-3.8-2.3-2.9,0-4,1-4,2.8l-4.1-.1ZM35,37c-.5.4-1.3.7-5.4,1.1-1.6.2-3.2.5-3.2,2.8,0,1.8,1.4,2.5,3.2,2.5,2.4,0,5.3-1.3,5.3-3.4l.1-3ZM56.5,46.1h-4v-11c0-3.4-1.2-4.8-3.9-4.8-1.9,0-4.5,1.3-4.5,5.4v10.4h-3.9v-18.2h3.9v2.4c1.1-1.5,3-3.3,5.6-3.3,1.7,0,6.7,1,6.7,6.8v12.3h.1ZM71.3,33.7c-.3-2-2.1-3.5-4.2-3.4-4.1,0-5.2,3.3-5.2,6.5,0,2.8.8,6.5,5.2,6.5,2.4,0,3.7-1.8,4.2-4.2h4c-.3,2.9-2.4,7.3-8.2,7.3s-9-3.8-9-9.6c0-6.7,4.2-9.8,9.1-9.8,4.4,0,7.7,2.9,8,6.6l-3.9.1Z"/>
</svg>